<?xml version="1.0" standalone="no"?>
<!DOCTYPE svg PUBLIC "-//W3C//DTD SVG 20010904//EN"
 "http://www.w3.org/TR/2001/REC-SVG-20010904/DTD/svg10.dtd">
<svg version="1.0" xmlns="http://www.w3.org/2000/svg"
 width="512.000000pt" height="512.000000pt" viewBox="0 0 512.000000 512.000000"
 preserveAspectRatio="xMidYMid meet">
<metadata>
Created by potrace 1.15, written by Peter Selinger 2001-2017
</metadata>
<g transform="translate(0.000000,512.000000) scale(0.100000,-0.100000)"
fill="#000000" stroke="none">
<path d="M259 4861 l-259 -259 0 -108 0 -108 76 74 c97 94 542 540 609 609
l49 51 -108 0 -108 0 -259 -259z"/>
<path d="M709 4411 l-709 -708 0 -109 0 -108 76 74 c42 41 111 110 154 152 43
42 91 98 106 125 217 376 552 714 929 935 64 38 98 70 323 301 l46 47 -108 0
-109 0 -708 -709z"/>
<path d="M3191 5090 c-19 -16 -33 -31 -30 -34 7 -6 170 -49 172 -45 1 3 24 28
52 57 l49 52 -104 0 c-101 -1 -106 -2 -139 -30z"/>
<path d="M3960 4962 l-161 -157 72 -41 72 -42 146 148 c80 81 168 171 196 199
l49 51 -107 0 -107 0 -160 -158z"/>
<path d="M4669 4772 l-349 -348 55 -54 c49 -48 56 -52 72 -39 10 8 165 162
346 344 l327 329 0 58 0 58 -51 0 -50 0 -350 -348z"/>
<path d="M4919 4121 l-191 -189 38 -66 c21 -36 42 -66 47 -66 4 0 75 69 157
153 l150 152 0 103 c0 56 -3 102 -6 102 -3 0 -91 -85 -195 -189z"/>
<path d="M2355 4036 c-185 -37 -337 -134 -424 -271 -34 -53 -71 -160 -71 -204
0 -14 -52 -169 -115 -344 -63 -175 -115 -324 -115 -333 0 -24 28 -71 47 -80
10 -5 106 -11 214 -14 l196 -5 -10 39 -10 39 174 169 c96 93 180 174 187 181
8 7 29 30 47 52 l34 40 1 -92 c0 -51 -4 -93 -9 -93 -28 0 -148 -160 -226 -302
-32 -58 -41 -68 -64 -68 -30 0 -135 -29 -129 -35 2 -2 26 2 53 10 26 8 59 15
72 15 21 0 22 -3 13 -20 -6 -11 -21 -20 -35 -20 -32 0 -83 -53 -90 -94 -8 -42
15 -99 49 -122 59 -38 143 -14 174 49 12 25 17 27 80 27 l67 0 -135 -135 -135
-135 -50 16 c-125 39 -327 26 -542 -34 -66 -19 -103 -25 -104 -18 0 10 -288
-980 -289 -995 0 -3 53 -22 118 -42 501 -157 1313 -192 1992 -86 108 17 306
60 346 76 10 4 14 -5 14 -35 0 -29 7 -49 24 -69 22 -25 31 -28 104 -31 77 -4
81 -3 113 26 l34 30 3 161 4 161 -157 0 -157 0 -27 28 c-19 19 -33 50 -46 101
l-18 73 174 174 c133 133 180 174 199 174 l25 0 -3 977 c-3 913 -4 980 -21
1002 -63 88 -187 83 -233 -9 -17 -33 -18 -101 -18 -1002 0 -648 3 -967 10
-970 6 -2 -22 -35 -61 -73 l-71 -70 7 35 c4 19 15 49 25 66 18 31 18 33 -25
180 -23 82 -49 165 -57 184 -50 117 -162 236 -278 294 -39 19 -123 51 -187 71
-106 34 -115 38 -109 58 3 12 6 27 6 34 0 9 54 13 201 15 l201 3 24 28 c15 17
24 41 24 60 0 18 -50 170 -111 337 -62 171 -115 333 -120 369 -22 153 -139
301 -299 379 -47 23 -112 49 -145 57 -84 23 -273 28 -360 11z m40 -491 c29
-14 60 -34 70 -45 18 -20 18 -21 -14 -54 l-33 -34 -45 26 c-36 20 -59 25 -112
25 -219 -1 -295 -193 -117 -298 15 -9 8 -19 -48 -74 -36 -36 -68 -62 -71 -59
-3 3 -20 69 -37 147 -29 127 -31 145 -20 187 46 173 258 262 427 179z m160
-1353 c-8 -9 -157 15 -189 29 l-27 13 108 108 108 108 3 -126 c1 -70 0 -129
-3 -132z m284 -119 l22 -18 -56 -55 c-53 -52 -55 -53 -55 -27 l0 27 -96 0 -95
0 2 -121 1 -121 -38 -39 c-21 -21 -44 -39 -51 -39 -7 0 -13 -6 -13 -13 0 -7
-18 -31 -40 -52 l-40 -39 0 52 0 52 -50 0 -50 0 0 -103 0 -103 -50 -49 c-80
-79 -80 -80 -80 295 l0 318 31 26 31 26 303 0 c273 0 305 -2 324 -17z m29
-672 c-24 -45 -60 -51 -295 -51 l-218 0 47 47 c46 45 48 47 102 44 l56 -2 0
58 c0 56 2 61 45 103 l45 44 0 -102 0 -102 50 0 50 0 0 120 0 120 -32 0 c-32
0 -32 1 62 95 l95 95 3 -222 c2 -166 -1 -229 -10 -247z"/>
<path d="M5063 3364 l-51 -50 21 -79 c11 -44 22 -82 24 -84 2 -3 17 9 34 25
30 30 30 30 27 134 l-3 104 -52 -50z"/>
<path d="M26 1926 c-24 -32 -26 -42 -26 -138 l0 -103 55 56 56 55 -22 82 c-12
45 -25 82 -29 82 -4 0 -19 -15 -34 -34z"/>
<path d="M4955 1458 c-132 -131 -168 -174 -254 -303 -212 -318 -449 -553 -761
-754 -93 -60 -145 -104 -272 -232 -87 -86 -158 -160 -158 -163 0 -3 47 -6 104
-6 l105 0 700 701 701 700 0 105 c0 57 -2 104 -5 104 -3 0 -75 -69 -160 -152z"/>
<path d="M152 1155 l-152 -156 0 -107 0 -106 72 71 c40 39 130 127 199 195
l127 125 -37 63 c-20 35 -41 65 -46 67 -6 2 -79 -67 -163 -152z"/>
<path d="M347 450 l-347 -349 0 -51 0 -50 58 0 58 0 346 344 346 343 -56 56
-57 57 -348 -350z"/>
<path d="M4759 362 c-192 -192 -349 -352 -349 -355 0 -4 46 -7 103 -7 l104 0
251 251 252 252 0 103 c0 57 -3 104 -6 104 -4 0 -163 -157 -355 -348z"/>
<path d="M998 201 c-104 -104 -188 -192 -188 -195 0 -3 46 -6 103 -6 l102 0
153 149 c83 82 152 153 152 158 0 7 -122 83 -132 83 -2 0 -87 -85 -190 -189z"/>
<path d="M1758 60 c-27 -27 -48 -52 -48 -55 0 -3 46 -5 103 -5 102 0 104 0
132 30 16 16 27 31 24 33 -2 2 -34 11 -70 20 -36 9 -72 19 -80 21 -8 3 -34
-15 -61 -44z"/>
</g>
</svg>
