<?xml version="1.0" standalone="no"?>
<!DOCTYPE svg PUBLIC "-//W3C//DTD SVG 20010904//EN"
 "http://www.w3.org/TR/2001/REC-SVG-20010904/DTD/svg10.dtd">
<svg version="1.0" xmlns="http://www.w3.org/2000/svg"
 width="512.000000pt" height="512.000000pt" viewBox="0 0 512.000000 512.000000"
 preserveAspectRatio="xMidYMid meet">
<metadata>
Created by potrace 1.15, written by Peter Selinger 2001-2017
</metadata>
<g transform="translate(0.000000,512.000000) scale(0.100000,-0.100000)"
fill="#000000" stroke="none">
<path d="M2445 4495 c-29 -28 -32 -65 -9 -103 13 -23 14 -49 7 -181 l-8 -153
-63 -24 c-255 -96 -453 -350 -538 -694 l-23 -94 29 -55 c17 -30 29 -55 27 -56
-111 -73 -183 -130 -267 -215 -534 -533 -533 -1386 0 -1920 534 -533 1386
-533 1920 0 524 524 535 1362 23 1900 l-81 86 28 38 c37 49 47 148 31 298 -36
335 -192 569 -460 690 -92 42 -240 78 -321 78 l-68 0 5 43 c3 23 13 50 21 60
22 25 20 81 -3 107 -25 27 -95 28 -119 1 -24 -26 -25 -85 -2 -110 32 -36 10
-110 -33 -111 -11 0 -13 24 -7 142 6 118 11 146 27 166 41 53 5 132 -61 132
-19 0 -40 -9 -55 -25z m453 -514 c285 -82 465 -279 526 -573 20 -95 22 -278 4
-278 -27 -1 -1513 153 -1517 156 -6 6 26 118 59 203 112 288 311 457 610 515
57 11 247 -3 318 -23z m-265 -851 c375 -38 701 -72 725 -75 l42 -6 -31 -45
c-17 -25 -37 -48 -44 -50 -12 -5 -1258 130 -1312 141 -23 5 -87 105 -67 105 3
0 312 -31 687 -70z m-620 -117 l55 -6 6 -51 c7 -54 -6 -210 -25 -311 -55 -293
-226 -566 -469 -747 -79 -59 -246 -158 -266 -158 -13 0 -24 67 -24 144 l0 51
58 30 c79 41 201 135 258 198 173 193 254 416 259 716 3 150 4 155 27 167 20
11 26 10 44 -7 14 -13 42 -22 77 -26z m342 -37 l90 -11 5 -90 c3 -49 5 -90 5
-91 0 -1 -68 -4 -151 -7 l-152 -7 2 115 1 115 55 -7 c30 -3 96 -11 145 -17z
m-565 -74 c0 -196 -52 -398 -142 -550 -45 -77 -177 -213 -258 -267 -98 -65
-100 -66 -100 -12 0 179 109 468 245 649 60 80 227 248 246 248 5 0 9 -30 9
-68z m917 31 c36 -6 32 5 51 -148 12 -89 61 -253 99 -330 124 -247 347 -428
626 -509 83 -24 266 -56 322 -56 l28 0 -7 -70 c-3 -38 -11 -91 -16 -118 l-11
-48 -72 8 c-334 38 -628 164 -831 357 -207 198 -343 508 -363 830 l-6 104 74
-7 c41 -4 89 -9 106 -13z m343 -35 c187 -20 207 -24 226 -46 46 -49 187 -271
231 -362 25 -52 49 -102 53 -110 20 -41 75 -8 64 38 -14 55 -91 201 -171 321
-46 68 -83 127 -83 131 0 4 10 15 21 26 21 19 22 19 101 -66 205 -218 315
-472 343 -787 l6 -73 -33 0 c-60 0 -221 28 -311 55 -165 48 -301 129 -413 247
-107 113 -178 242 -224 410 -25 91 -41 238 -26 238 6 0 103 -10 216 -22z
m-570 -260 c33 -170 113 -362 212 -505 67 -98 192 -224 285 -287 l72 -49 -51
-66 c-29 -36 -63 -80 -76 -97 l-25 -32 -51 23 c-296 131 -724 139 -1042 19
-35 -13 -68 -24 -73 -24 -4 0 -29 48 -55 106 l-46 106 27 21 c54 41 166 153
215 215 132 165 214 351 264 599 5 27 22 29 200 31 l131 2 13 -62z m-871 -952
c22 -52 41 -96 41 -99 0 -3 -33 -24 -72 -47 -40 -24 -97 -60 -125 -82 l-53
-38 -16 37 c-14 35 -64 181 -64 189 0 2 26 17 58 33 32 16 85 46 118 65 32 20
62 36 65 36 3 0 25 -42 48 -94z m1598 30 c146 -64 268 -98 453 -126 102 -15
115 -19 112 -35 -8 -42 -83 -201 -133 -281 -49 -77 -181 -234 -197 -234 -4 0
-23 30 -42 68 -73 141 -232 318 -369 411 -39 27 -59 47 -55 54 18 30 138 177
145 177 4 0 43 -15 86 -34z m-632 -91 c281 -61 502 -200 666 -418 67 -88 133
-212 125 -232 -5 -14 -149 -115 -164 -115 -5 0 -35 39 -68 87 -70 104 -211
254 -303 323 -90 68 -199 124 -306 156 -78 24 -108 27 -230 28 -107 1 -158 -3
-215 -18 -152 -39 -295 -104 -438 -200 -46 -31 -86 -56 -90 -56 -4 0 -31 37
-59 82 -42 64 -50 84 -41 95 22 27 177 124 259 162 110 51 230 88 359 112 85
15 136 18 270 14 94 -2 195 -11 235 -20z m-109 -265 c165 -42 300 -124 444
-269 102 -103 220 -265 204 -280 -17 -17 -157 -68 -244 -90 -417 -102 -866 11
-1171 297 -49 46 -89 88 -89 92 0 27 285 188 400 225 150 50 322 59 456 25z"/>
<path d="M2653 3916 c-96 -31 -178 -110 -214 -205 -30 -80 -24 -186 16 -260
106 -194 346 -239 513 -95 25 21 55 62 74 102 63 127 39 271 -62 372 -83 83
-223 120 -327 86z"/>
<path d="M2175 3535 c-51 -50 -14 -139 58 -139 66 0 103 63 73 122 -26 50 -91
58 -131 17z"/>
<path d="M1857 1093 c-4 -3 -7 -17 -7 -29 0 -62 319 -212 528 -249 202 -37
522 2 522 63 0 39 -24 46 -97 28 -281 -69 -601 -8 -853 163 -43 30 -79 39 -93
24z"/>
</g>
</svg>
